<?xml version="1.0" encoding="utf-8"?>
<!-- Generator: Adobe Illustrator 28.1.0, SVG Export Plug-In . SVG Version: 6.00 Build 0)  -->
<svg version="1.1" id="Calque_1" xmlns="http://www.w3.org/2000/svg" xmlns:xlink="http://www.w3.org/1999/xlink" x="0px" y="0px"
	 viewBox="0 0 388 115.1" style="enable-background:new 0 0 388 115.1;" xml:space="preserve">
<style type="text/css">
	.st0{fill:url(#SVGID_1_);}
	.st1{fill:#F6F6F6;}
	.st2{fill:url(#SVGID_00000170261059630017448300000016722485671494677888_);}
	.st3{fill:#FFFFFF;}
	.st4{fill:none;}
</style>
<g id="Calque_1_00000123441210089515217060000010994737580247453870_">
	<g id="Calque_1-2">
		
			<linearGradient id="SVGID_1_" gradientUnits="userSpaceOnUse" x1="-2013.8032" y1="982.7999" x2="-2011.4033" y2="464.3337" gradientTransform="matrix(1 0 0 -1 0 794.724)">
			<stop  offset="0" style="stop-color:#2581C4"/>
			<stop  offset="1" style="stop-color:#FFFFFF"/>
		</linearGradient>
		<rect x="-2269.4" y="-186.2" class="st0" width="513.6" height="516.1"/>
		<g>
			<path class="st1" d="M-2179.1,85.7c-0.6,0.8-1.4,1.2-2.5,1.2s-1.8-0.4-2.4-1.1c-0.6-0.8-0.8-1.5-0.8-2s0.3-1.5,0.8-2.3
				c1.3-1.9,2.9-4,4.7-6.3s3.7-4.4,5.8-6.4s4.1-3.6,6.3-4.9c2.1-1.3,4.2-2,6.3-2s3.3,0.6,4.5,1.7s2.2,2.7,3,4.6
				c0.7,1.9,1.2,4.2,1.4,6.8c0.2,2.6,0,5.3-0.3,8.1c0.8-1.3,1.7-3,2.8-5.1c1-2.1,2.2-4.1,3.4-6s2.6-3.6,4-5s2.9-2.1,4.5-2.1
				s1.8,0.5,2.5,1.4s1.4,2.1,1.9,3.4c0.5,1.4,0.9,2.8,1.3,4.4c0.3,1.6,0.6,3,0.8,4.4s0.4,3,0.5,4.9c1.3-2.4,2.8-5,4.3-8.1
				c1.5-3,3.1-5.9,4.8-8.6c1.7-2.7,3.5-5,5.3-6.9s3.7-2.8,5.6-2.8c1.9,0,1,0.1,1.6,0.4s1.1,0.9,1.5,1.9c0.4,1.2,0.9,2.9,1.4,4.9
				s1,4.2,1.5,6.4c0.5,2.3,1,4.6,1.5,6.8c0.5,2.2,1,4.3,1.5,6.2c0.5,1.8,1,3.3,1.5,4.5s1,1.8,1.5,1.8c1,0,2.1-0.8,3.4-2.4
				s2.7-3.4,4.2-5.5c0.7-0.9,1.5-1.3,2.6-1.3c1.1,0,1.7,0.3,2.3,1s0.8,1.4,0.8,2.2s-0.2,1.6-0.7,2.3c-2,3.1-4.1,5.6-6.2,7.5
				c-2.1,1.9-4.5,2.9-7.3,2.9c-2.8,0-3.2-0.7-4.5-2.2c-1.2-1.5-2.2-3.3-3-5.5c-0.8-2.2-1.5-4.6-2-7.1c-0.6-2.5-1-4.9-1.5-7.1
				s-0.8-4-1.2-5.5c-0.4-1.5-0.8-2.2-1.2-2.2c-0.6,0-1.3,0.5-2.2,1.5c-0.8,1-1.7,2.3-2.5,3.7c-0.8,1.4-1.7,2.9-2.5,4.4
				c-0.8,1.5-1.5,2.9-2,4c-0.6,1.1-1.4,2.7-2.3,4.8c-0.9,2.1-2,4.2-3.1,6.2s-2.2,3.9-3.4,5.4s-2.3,2.3-3.3,2.3s-1.2-0.1-1.5-0.4
				s-0.5-0.6-0.5-1s0-0.9,0-1.4V88c0-0.9,0-2-0.2-3.3c0-1.3-0.3-2.6-0.5-3.9c-0.3-1.2-0.6-2.3-1-3.2c-0.4-0.9-0.9-1.3-1.4-1.3
				c-0.8,0-1.6,0.5-2.5,1.4c-0.9,1-1.7,2.2-2.7,3.7s-1.9,3.2-2.8,5.1c-0.9,1.9-1.8,3.8-2.8,5.8s-1.8,3.8-2.6,5.5
				c-0.8,1.8-1.6,3.3-2.2,4.5c-0.3,0.6-0.8,1.1-1.5,1.6s-1.6,0.8-2.7,0.8c-1.1,0-1.6-0.3-2.3-0.9s-1.1-1.5-1.1-2.5s0-0.7,0-1
				c0.5-1.4,1-3.1,1.5-5.3c0.5-2.1,0.9-4.4,1.3-6.8c0.4-2.4,0.6-4.8,0.8-7.1c0.2-2.4,0.2-4.5,0.2-6.4s-0.3-3.5-0.7-4.7
				s-0.9-1.8-1.6-1.8c-1.2,0-2.6,0.6-4.2,1.9c-1.6,1.3-3.3,2.8-5,4.6c-1.7,1.8-3.3,3.7-4.9,5.7S-2178,84.2-2179.1,85.7L-2179.1,85.7
				L-2179.1,85.7z"/>
			<path class="st1" d="M-2063.6,75.7c0.5,2,0.8,4.1,0.8,6.3c0,4-1,7.1-3,9.6c-2,2.4-4.9,3.6-8.6,3.6s-4.7-0.7-7-2.1
				s-4.4-3.2-6.2-5.4c-1.8-2.2-3.3-4.7-4.4-7.5c-1.1-2.8-1.7-5.6-1.7-8.4s0.4-4.4,1.3-6.5c0.8-2.2,2-4.1,3.4-5.8s3.1-3.1,5.1-4.1
				c1.9-1,4-1.5,6.2-1.5c2.2,0,4.2,0.4,5.9,1.3s3.4,2.1,4.8,3.5c1.4,1.5,2.7,3.1,3.9,5c1.2,1.9,2.3,3.8,3.3,5.8
				c0.7,1.2,1.4,3,2.2,5.1c0.8,2.2,1.8,4.3,2.8,6.5c1,2.1,2.1,4,3.2,5.5c1.1,1.6,2.3,2.4,3.6,2.4s2.4-0.4,3.3-1.3s1.7-1.9,2.5-2.9
				s1.5-2.1,2.2-2.9s1.5-1.3,2.5-1.3s1.8,0.4,2.4,1c0.6,0.7,0.9,1.5,0.9,2.2s-0.3,1.5-0.9,2.2c-0.8,1.1-1.7,2.2-2.6,3.4
				c-1,1.1-2,2.2-3.1,3.1s-2.3,1.6-3.5,2.2c-1.2,0.5-2.4,0.8-3.6,0.8c-1.9,0-3.7-0.6-5.3-1.9s-3.1-2.9-4.4-4.8
				c-1.3-1.9-2.5-4-3.5-6.3S-2063.1,77.9-2063.6,75.7L-2063.6,75.7L-2063.6,75.7z M-2068.2,76.3c0-2,0-4-0.3-6
				c-0.2-1.9-0.7-3.7-1.4-5.2c-0.7-1.5-1.7-2.8-2.9-3.7s-2.9-1.4-4.8-1.4s-2.9,0.4-4.1,1.2c-1.2,0.8-2.2,1.8-3,3
				c-0.8,1.2-1.5,2.5-1.9,3.9c-0.4,1.4-0.6,2.7-0.6,3.9c0,1.9,0.4,3.8,1.1,5.7c0.7,1.9,1.7,3.7,2.9,5.3c1.2,1.6,2.6,2.9,4.1,3.9
				s3.1,1.5,4.7,1.5s3.2-1,4.4-3C-2068.8,83.7-2068.2,80.6-2068.2,76.3L-2068.2,76.3z"/>
			<path class="st1" d="M-2057.6,40c-0.3-0.3-0.5-0.6-0.5-1s0-0.7,0-1c0-1.2,0.5-2,1.6-2.2c1.1-0.3,2.2-0.4,3.3-0.4s1.4,0,2.1,0.1
				c0.7,0,1.4,0.1,2.1,0.2c0-4.2,0.2-8.4,0.6-12.5c0.4-4.2,0.6-8.4,0.6-12.5s0.2-1.4,0.7-1.6s1.2-0.4,2.2-0.4s1.8,0.2,2.4,0.6
				c0.7,0.4,1,1.1,1,2.2s0,3.3-0.2,5.5c0,2.2-0.2,4.5-0.3,6.8c-0.1,2.3-0.2,4.6-0.3,6.9c0,2.2-0.2,4.1-0.2,5.6
				c1.2,0.1,2.3,0.1,3.5,0.2c1.1,0,2.3,0.1,3.5,0.1c3.9,0,7.7-0.2,11.5-0.6c3.8-0.4,7.7-0.6,11.7-0.6s1.9,0.4,2.4,1.1
				c0.5,0.7,0.7,1.4,0.7,2.1v0.9c0,0.4-0.2,0.9-0.4,1.3c-0.2,0.4-0.6,0.8-1,1.2c-0.4,0.3-1.1,0.5-1.9,0.5h-23.8c-1,0-2,0-3.1-0.1
				c-1,0-2-0.1-2.9-0.2c-0.2,2.4-0.3,5-0.3,7.7s0,5.9,0.4,9c0.3,3.1,0.7,6.1,1.4,9.1c0.7,3,1.7,5.8,2.9,8.4s2.8,4.9,4.7,6.9
				c1.9,1.9,4.3,3.5,7,4.7s5.9,1.8,9.6,1.8s4.8-0.2,6.8-0.5c2-0.4,3.9-0.9,5.7-1.6c1.7-0.7,3.3-1.6,4.8-2.5s3-2,4.5-3.3
				c0.2-0.2,0.5-0.4,1-0.5s0.8-0.2,1.1-0.2c0.9,0,1.6,0.3,2.3,0.9c0.6,0.6,0.9,1.4,0.9,2.4s0,0.7-0.2,1.1s-0.4,0.8-0.7,1.1
				c-3.2,3.2-7.1,5.7-11.7,7.3c-4.6,1.6-9.4,2.5-14.5,2.5s-8.6-0.7-12-2.1s-6.3-3.3-8.7-5.7c-2.4-2.4-4.4-5.1-5.9-8.2
				s-2.7-6.4-3.5-9.8s-1.4-6.9-1.8-10.3c-0.3-3.5-0.5-6.8-0.5-9.9v-5.3c0-0.9,0-1.7,0-2.4c-1.8-0.1-3.4-0.3-5-0.4
				C-2055.6,41.3-2056.8,40.8-2057.6,40L-2057.6,40L-2057.6,40z"/>
			<path class="st1" d="M-1995,106.7c-0.4-7-0.8-13.2-1-18.5c-0.3-5.3-0.5-9.9-0.7-13.9s-0.3-7.4-0.4-10.2c0-2.8,0-5.3,0-7.4
				s0-4.2,0-6.7s0.2-5,0.5-7.5c0.3-2.6,0.6-5.1,1.1-7.4c0.5-2.4,1.1-4.5,2-6.4s2-3.4,3.2-4.6c1.3-1.1,2.8-1.7,4.7-1.7
				c2.7,0,4.8,1,6.3,3s2.6,4.3,3.3,7c0.7,2.7,1.2,5.4,1.4,8.1s0.3,4.9,0.3,6.5c0,4.8-0.7,9.2-2,13.4s-2.8,7.9-4.6,11.2
				c-1.7,3.3-3.4,6.2-5,8.5c-1.6,2.4-2.8,4.1-3.4,5.2v8c0,2.2,0.2,4.3,0.4,6.2c1-0.3,2-1,2.8-2c0.8-1.1,1.6-2.3,2.4-3.7
				c0.8-1.4,1.6-3,2.4-4.6s1.8-3.1,3-4.4s2.5-2.4,4-3.3s3.4-1.3,5.5-1.3s4,0.4,5.4,1.2s2.6,1.8,3.6,3s1.8,2.5,2.5,4
				c0.7,1.4,1.5,2.8,2.2,4c0.8,1.2,1.7,2.2,2.8,3s2.4,1.2,4.1,1.2s3.1-0.5,4.6-1.5s3-2.3,4.5-3.8s2.8-3.1,4.1-4.8
				c1.3-1.7,2.4-3.3,3.5-4.7c0.7-1,1.6-1.4,2.8-1.4c1.2,0,1.5,0.3,2.2,1s1,1.4,1,2.3s-0.2,1.5-0.7,2c-1.8,2.6-3.5,4.9-5.2,7
				s-3.5,3.9-5.3,5.5c-1.8,1.5-3.7,2.8-5.5,3.6c-1.9,0.9-3.9,1.3-6,1.3s-4.5-0.4-6.1-1.2c-1.6-0.8-3.1-1.8-4.2-3
				c-1.2-1.2-2.1-2.5-2.9-4c-0.8-1.4-1.5-2.8-2.2-4s-1.5-2.2-2.2-3c-0.8-0.8-1.7-1.2-2.8-1.2s-2.5,0.5-3.5,1.6s-2,2.4-3,4.1
				s-1.9,3.4-2.9,5.3s-2.1,3.6-3.5,5.3c-1.3,1.6-2.8,3-4.6,4.1c-1.7,1.1-3.8,1.6-6.1,1.6C-1994,108.5-1995,107.9-1995,106.7
				L-1995,106.7L-1995,106.7z M-1990.6,67.6v4.2c0,1.7,0,3,0.2,4c1.2-2.1,2.5-4.3,3.6-6.8c1.2-2.5,2.2-4.9,3.1-7.5s1.6-5,2.1-7.5
				s0.8-4.8,0.8-6.9s0-2.7-0.3-4.7s-0.5-4.1-0.8-6.1c-0.4-2-0.8-3.8-1.4-5.2c-0.6-1.5-1.3-2.2-2.2-2.2s-1.4,0.8-1.9,2.2
				s-1,3.4-1.4,5.8c-0.4,2.4-0.7,5-0.9,8c-0.2,2.9-0.4,5.8-0.5,8.7s-0.2,5.5-0.2,8C-1990.4,64.2-1990.4,66.1-1990.6,67.6
				L-1990.6,67.6L-1990.6,67.6z"/>
			<path class="st1" d="M-1923.5,81.2c-0.2,1.1-0.8,2.3-1.6,3.7c-0.9,1.4-2,2-3.3,2s-1.9-0.4-2.5-1c-0.5-0.7-0.8-1.4-0.8-2.1
				s0-0.6,0-0.8c0-0.3,0.2-0.5,0.2-0.7c0.8-1.2,1.6-2.6,2.4-4.1s1.2-2.9,1.2-4.4s0-1.4,0-2.1s0.2-1.3,0.4-1.9c0.3-0.6,0.6-1,1.1-1.3
				s1.2-0.5,2.1-0.5s1.4,0.3,1.8,0.8s0.6,0.8,0.6,1c0.3,0.4,0.5,0.9,0.5,1.5c0.5,1.5,1.2,3.3,2,5.6c0.8,2.3,1.9,4.5,3.3,6.6
				s3,4,4.9,5.5s4.2,2.3,6.8,2.3s2.2-0.3,3.5-0.9c1.2-0.6,2.4-1.4,3.5-2.3s2.1-1.9,3-3s1.6-2.1,2.1-3c0.3-0.6,0.7-1,1.2-1.3
				s1-0.4,1.6-0.4s1.5,0.3,2.2,0.8s1.1,1.4,1.1,2.5s-0.3,1.4-0.8,2.2c-1,1.5-2.2,3-3.5,4.4s-2.7,2.7-4.2,3.8s-3.1,2-4.7,2.7
				s-3.3,1-5.1,1c-1.8,0-4.7-0.5-6.9-1.4c-2.2-1-4.1-2.2-5.8-3.7c-1.7-1.5-3.2-3.3-4.3-5.3s-1.8-4.1-2.2-6.2l0,0L-1923.5,81.2z
				 M-1928.8,50.3c0.3-0.8,0.8-1.6,1.4-2.4c0.7-0.8,1.8-1.1,3.5-1.1s1.6,0.2,2.1,0.5c0.6,0.3,1,0.7,1.3,1.1c0.3,0.4,0.6,0.9,0.7,1.4
				c0,0.5,0.2,1,0.2,1.4c0,3.1-2,4.7-6,4.7s-1.9-0.4-2.5-1.2s-0.9-1.8-0.9-2.9V51C-1928.9,50.8-1928.8,50.6-1928.8,50.3
				L-1928.8,50.3L-1928.8,50.3z"/>
			<path class="st1" d="M-1868.1,60.4c-0.6,0.4-1.3,1.2-2.2,2.3s-1.9,2.4-3,3.9s-2.2,3.1-3.3,4.9c-1.2,1.8-2.3,3.5-3.5,5.2
				c-1.1,1.7-2.2,3.4-3.3,4.9s-2,2.8-2.8,3.9c-0.6,0.6-1.1,1-1.6,1.2s-0.9,0.3-1.3,0.3c-0.9,0-1.7-0.3-2.4-0.9c-0.7-0.6-1-1.4-1-2.3
				s0.2-1.2,0.7-1.9c2.5-3.3,4.9-6.7,7.2-10.1c2.3-3.5,4.4-6.6,6.4-9.3c2-2.8,3.8-5,5.5-6.8s3.2-2.6,4.6-2.6s3.8,0.9,5.7,2.8
				s3.5,4.2,5.1,6.9c1.5,2.8,2.7,5.9,3.7,9.2s1.4,6.4,1.4,9.4v1.4c0,0.5,0,0.9-0.2,1.3h2.5c0.8,0,1.7-0.1,2.5-0.2
				c0.8-0.2,1.6-0.5,2.4-0.8s1.5-0.8,2-1.4c0.7-0.7,1.5-1,2.2-1s1.5,0.3,2.2,0.9s1,1.4,1,2.4s-0.3,1.9-0.9,2.6s-1.4,1.3-2.3,1.8
				s-2,0.9-3.2,1.2c-1.2,0.3-2.3,0.5-3.5,0.6c-1.1,0.1-2.1,0.1-3-0.1s-1.8-0.3-2.6-0.3c-0.4,2-1,4.1-2,6.1s-2.2,3.8-3.7,5.4
				s-3.2,2.9-5.1,3.9s-3.9,1.5-6.1,1.5s-1.8-0.1-3-0.4s-2.4-0.7-3.5-1.4c-1.1-0.7-2.1-1.5-2.9-2.7c-0.8-1.1-1.2-2.6-1.2-4.3
				s0.5-4.1,1.6-5.9c1.1-1.7,2.6-3.2,4.6-4.4c1.9-1.2,4.2-2.1,6.9-2.8s5.6-1,8.7-1c0-0.4,0-0.7,0.2-1.1v-1.1c0-2.4-0.4-4.9-1-7.4
				c-0.7-2.5-1.5-4.8-2.5-6.8s-2-3.7-3-5C-1866.4,61-1867.3,60.4-1868.1,60.4L-1868.1,60.4L-1868.1,60.4z M-1870.3,100.1
				c2.8,0,5-1,6.8-2.9c1.7-1.9,2.8-4.2,3.3-6.9c-1.4,0-2.9,0.1-4.6,0.3c-1.6,0.2-3.2,0.6-4.6,1.1s-2.6,1.3-3.6,2.2s-1.5,2.2-1.5,3.7
				s0.4,1.1,1.3,1.6C-1872.3,99.9-1871.4,100.1-1870.3,100.1L-1870.3,100.1L-1870.3,100.1z"/>
		</g>
	</g>
	<g id="Calque_2_00000152247264762170226760000005791622845293899411_">
		
			<linearGradient id="SVGID_00000031170627769108095310000012669480943579988378_" gradientUnits="userSpaceOnUse" x1="-1476.6029" y1="981.7" x2="-1474.2026" y2="463.2334" gradientTransform="matrix(1 0 0 -1 0 794.724)">
			<stop  offset="0" style="stop-color:#2581C4"/>
			<stop  offset="1" style="stop-color:#FFFFFF"/>
		</linearGradient>
		
			<rect x="-1732.2" y="-185.2" style="fill:url(#SVGID_00000031170627769108095310000012669480943579988378_);" width="513.6" height="516.1"/>
		<text transform="matrix(1 0 0 1 -1555.4865 101.224)" class="st3" style="font-family:'Bimbo-Regular'; font-size:160px;">M.</text>
	</g>
	<g id="Calque_3">
		<rect x="-1146.6" y="-189.3" class="st3" width="519.1" height="519.1"/>
		<g>
			<path d="M-1056,80.3c-0.6,0.9-1.4,1.3-2.5,1.3s-1.8-0.4-2.4-1.3c-0.6-0.8-0.8-1.6-0.8-2.2s0.3-1.6,0.8-2.5
				c1.3-2.1,2.9-4.4,4.7-6.9c1.8-2.5,3.7-4.9,5.8-7c2.1-2.2,4.2-4,6.3-5.4c2.1-1.4,4.2-2.2,6.3-2.2s3.3,0.6,4.5,1.9
				c1.3,1.2,2.2,2.9,3,5c0.7,2.1,1.2,4.6,1.4,7.4c0.2,2.8,0,5.8-0.3,8.9c0.8-1.4,1.7-3.3,2.8-5.6c1-2.3,2.2-4.5,3.4-6.6
				c1.3-2.1,2.6-3.9,4-5.5c1.4-1.5,2.9-2.3,4.5-2.3s1.8,0.5,2.5,1.5s1.4,2.2,1.9,3.7s0.9,3.1,1.3,4.8c0.3,1.7,0.6,3.3,0.8,4.8
				s0.4,3.3,0.6,5.3c1.3-2.6,2.8-5.5,4.3-8.8s3.2-6.5,4.9-9.4c1.7-3,3.5-5.5,5.3-7.5s3.7-3.1,5.6-3.1s1,0.1,1.6,0.4
				c0.6,0.3,1.1,1,1.5,2.1c0.4,1.4,0.9,3.1,1.4,5.3s1,4.5,1.5,7s1,5,1.5,7.4c0.5,2.5,1,4.7,1.5,6.7s1,3.6,1.5,4.9s1,1.9,1.5,1.9
				c1,0,2.1-0.9,3.4-2.6s2.7-3.7,4.2-6.1c0.7-1,1.5-1.4,2.6-1.4s1.7,0.4,2.3,1.1s0.8,1.5,0.8,2.4s-0.2,1.7-0.7,2.5
				c-2.1,3.4-4.1,6.1-6.2,8.2s-4.5,3.2-7.3,3.2s-3.3-0.8-4.5-2.4s-2.2-3.6-3-6s-1.5-5-2-7.7c-0.6-2.8-1-5.3-1.5-7.7s-0.8-4.4-1.2-6
				s-0.8-2.4-1.2-2.4c-0.6,0-1.3,0.6-2.2,1.7c-0.8,1.1-1.7,2.5-2.5,4c-0.8,1.6-1.7,3.2-2.5,4.9s-1.5,3.1-2,4.3
				c-0.6,1.2-1.4,2.9-2.3,5.2c-1,2.3-2,4.5-3.1,6.8c-1.1,2.2-2.2,4.2-3.4,5.9c-1.2,1.7-2.3,2.5-3.3,2.5s-1.3-0.1-1.5-0.4
				c-0.3-0.3-0.5-0.6-0.6-1.1c0-0.4,0-0.9,0-1.5s0-1.2,0-1.8v-7.6c0-1,0-2.2-0.2-3.6s-0.3-2.8-0.6-4.2c-0.3-1.4-0.6-2.5-1-3.5
				s-0.9-1.4-1.4-1.4c-0.8,0-1.6,0.5-2.5,1.6c-0.8,1-1.7,2.4-2.7,4s-1.9,3.5-2.8,5.6c-0.9,2.1-1.8,4.2-2.8,6.3
				c-0.9,2.1-1.8,4.1-2.6,6.1c-0.8,1.9-1.6,3.6-2.3,4.9c-0.3,0.6-0.8,1.2-1.5,1.8c-0.7,0.6-1.6,0.8-2.7,0.8c-1.1,0-1.6-0.3-2.3-1
				s-1.1-1.6-1.1-2.7s0-0.8,0-1.1c0.5-1.5,1-3.4,1.5-5.8c0.5-2.3,0.9-4.8,1.3-7.4c0.4-2.6,0.6-5.2,0.8-7.7c0.2-2.6,0.2-4.9,0.2-7
				s-0.3-3.8-0.7-5.1s-0.9-2-1.7-2c-1.2,0-2.6,0.7-4.2,2c-1.6,1.4-3.3,3-5,5s-3.4,4-4.9,6.2C-1053.7,76.7-1055,78.6-1056,80.3
				L-1056,80.3z"/>
			<path d="M-940.1,69.4c0.5,2.2,0.8,4.5,0.8,6.8c0,4.3-1,7.8-3,10.4s-4.9,4-8.7,4s-4.7-0.8-7-2.3s-4.4-3.5-6.2-5.9
				s-3.3-5.1-4.4-8.2c-1.1-3-1.7-6.1-1.7-9.1s0.4-4.8,1.3-7.1c0.8-2.4,2-4.5,3.4-6.4s3.1-3.4,5.1-4.5c1.9-1.1,4-1.7,6.2-1.7
				s4.2,0.5,6,1.4s3.4,2.2,4.8,3.8s2.7,3.4,3.9,5.4s2.3,4.1,3.3,6.3c0.7,1.4,1.4,3.2,2.3,5.6c0.8,2.4,1.8,4.7,2.8,7.1
				c1,2.3,2.1,4.3,3.2,6s2.3,2.6,3.6,2.6s2.4-0.5,3.3-1.4s1.7-2,2.5-3.2s1.5-2.2,2.2-3.2c0.7-0.9,1.5-1.4,2.5-1.4s1.8,0.4,2.4,1.1
				c0.6,0.8,0.9,1.6,0.9,2.5s-0.3,1.6-0.9,2.4c-0.8,1.2-1.7,2.4-2.6,3.7c-1,1.2-2,2.4-3.1,3.4s-2.3,1.8-3.5,2.4s-2.4,0.9-3.6,0.9
				c-1.9,0-3.7-0.7-5.4-2.1s-3.1-3.1-4.5-5.2c-1.3-2.1-2.5-4.4-3.5-6.9C-938.8,74.1-939.6,71.7-940.1,69.4L-940.1,69.4z M-944.7,70
				c0-2.2-0.1-4.4-0.3-6.5s-0.7-4-1.4-5.7s-1.7-3-2.9-4c-1.3-1-2.9-1.5-4.9-1.5s-2.9,0.4-4.1,1.3c-1.2,0.9-2.2,2-3,3.3
				s-1.5,2.7-1.9,4.3s-0.6,3-0.6,4.2c0,2.1,0.4,4.2,1.1,6.3s1.7,4,2.9,5.7s2.6,3.1,4.1,4.2s3.1,1.7,4.7,1.7s3.3-1.1,4.5-3.2
				S-944.7,74.6-944.7,70L-944.7,70z"/>
			<path d="M-934.1,30.4c-0.3-0.3-0.5-0.7-0.6-1.1c-0.1-0.4-0.1-0.8-0.1-1.1c0-1.4,0.6-2.2,1.7-2.5s2.2-0.4,3.3-0.4s1.4,0,2.1,0.1
				c0.7,0,1.4,0.1,2.1,0.2c0-4.6,0.2-9.1,0.6-13.7c0.4-4.6,0.6-9.1,0.6-13.7s0.2-1.5,0.7-1.8c0.4-0.3,1.2-0.5,2.2-0.5
				s1.8,0.2,2.4,0.6c0.7,0.4,1,1.2,1,2.4s-0.1,3.6-0.2,6s-0.2,4.9-0.3,7.4c-0.1,2.6-0.2,5.1-0.3,7.5s-0.2,4.5-0.2,6.1
				c1.2,0.1,2.3,0.1,3.5,0.2c1.1,0,2.3,0.1,3.5,0.1c3.9,0,7.8-0.2,11.6-0.7c3.8-0.4,7.7-0.7,11.7-0.7s1.9,0.4,2.4,1.2
				s0.7,1.6,0.7,2.3s0,0.5-0.1,1c0,0.5-0.2,1-0.4,1.4c-0.2,0.5-0.6,0.9-1,1.3c-0.4,0.4-1.1,0.5-1.9,0.5h-23.8c-1,0-2.1,0-3.1-0.1
				c-1,0-2-0.1-2.9-0.2c-0.2,2.6-0.3,5.4-0.3,8.4s0.1,6.5,0.4,9.8c0.3,3.4,0.7,6.6,1.4,9.9c0.7,3.2,1.7,6.3,2.9,9.2s2.8,5.4,4.7,7.5
				s4.3,3.8,7,5.1c2.7,1.3,5.9,1.9,9.6,1.9s4.8-0.2,6.8-0.6c2.1-0.4,4-1,5.7-1.8s3.3-1.7,4.9-2.8c1.5-1,3-2.2,4.5-3.6
				c0.2-0.2,0.6-0.4,1-0.6s0.8-0.2,1.1-0.2c0.9,0,1.6,0.3,2.3,1c0.6,0.6,0.9,1.5,0.9,2.6s-0.1,0.7-0.2,1.2s-0.4,0.9-0.7,1.2
				c-3.2,3.5-7.2,6.2-11.8,8s-9.4,2.7-14.5,2.7s-8.7-0.8-12.1-2.3c-3.4-1.6-6.3-3.6-8.8-6.2c-2.4-2.6-4.4-5.6-5.9-9s-2.7-7-3.5-10.7
				s-1.4-7.5-1.8-11.3c-0.3-3.8-0.5-7.4-0.5-10.9v-5.8c0-1,0-1.9,0.1-2.6c-1.8-0.2-3.4-0.3-5-0.4C-932.1,31.8-933.3,31.3-934.1,30.4
				L-934.1,30.4z"/>
			<path d="M-871.2,103.2c-0.4-7.7-0.8-14.4-1-20.2c-0.3-5.8-0.5-10.8-0.7-15.1s-0.3-8-0.4-11.1s-0.1-5.8-0.1-8.1s0-4.6,0.1-7.3
				s0.2-5.4,0.5-8.2s0.6-5.5,1.1-8.1s1.2-4.9,2-7c0.9-2.1,2-3.7,3.3-5c1.3-1.2,2.9-1.9,4.7-1.9c2.7,0,4.8,1.1,6.3,3.2
				c1.5,2.2,2.6,4.7,3.4,7.6c0.7,2.9,1.2,5.9,1.4,8.9s0.3,5.4,0.3,7.1c0,5.2-0.7,10.1-2,14.6s-2.9,8.6-4.6,12.2
				c-1.7,3.6-3.4,6.7-5,9.3c-1.6,2.6-2.8,4.4-3.4,5.6c0,3.4,0,6.3,0.1,8.7c0,2.4,0.2,4.7,0.4,6.8c1-0.3,2-1.1,2.8-2.2
				c0.8-1.2,1.7-2.5,2.4-4.1c0.8-1.6,1.6-3.2,2.4-5s1.8-3.4,3-4.8c1.1-1.4,2.5-2.6,4-3.6s3.4-1.4,5.5-1.4s4,0.4,5.5,1.3
				c1.4,0.9,2.6,2,3.6,3.3s1.8,2.8,2.5,4.3c0.7,1.6,1.5,3,2.3,4.3s1.7,2.4,2.8,3.3s2.4,1.3,4.1,1.3s3.1-0.6,4.6-1.7s3.1-2.5,4.5-4.1
				c1.5-1.6,2.9-3.4,4.1-5.3c1.3-1.9,2.4-3.6,3.5-5.1c0.7-1,1.6-1.6,2.8-1.6s1.5,0.4,2.2,1.1s1,1.6,1,2.5s-0.2,1.6-0.7,2.2
				c-1.8,2.8-3.5,5.4-5.2,7.7c-1.7,2.3-3.5,4.3-5.3,6s-3.7,3-5.6,3.9s-3.9,1.4-6.1,1.4s-4.5-0.4-6.1-1.3c-1.7-0.9-3.1-2-4.2-3.3
				c-1.2-1.3-2.2-2.8-2.9-4.3c-0.8-1.6-1.5-3-2.3-4.3c-0.7-1.3-1.5-2.4-2.3-3.3s-1.7-1.3-2.8-1.3s-2.5,0.6-3.5,1.7
				c-1,1.2-2,2.6-3,4.4s-1.9,3.7-2.9,5.8s-2.2,4-3.5,5.8s-2.9,3.3-4.6,4.4c-1.7,1.2-3.8,1.7-6.1,1.7
				C-870.3,105.1-871.2,104.5-871.2,103.2L-871.2,103.2z M-866.8,60.5v4.6c0,1.8,0.1,3.3,0.2,4.3c1.3-2.2,2.5-4.7,3.6-7.4
				c1.2-2.7,2.2-5.4,3.1-8.2s1.6-5.5,2.1-8.2s0.8-5.2,0.8-7.5s-0.1-2.9-0.3-5.2c-0.2-2.2-0.5-4.5-0.8-6.7c-0.4-2.2-0.8-4.1-1.4-5.7
				c-0.6-1.6-1.3-2.4-2.2-2.4s-1.4,0.8-1.9,2.5c-0.6,1.6-1,3.8-1.4,6.4c-0.4,2.6-0.7,5.5-0.9,8.7s-0.4,6.4-0.5,9.5s-0.2,6-0.2,8.8
				C-866.8,56.7-866.8,58.9-866.8,60.5L-866.8,60.5z"/>
			<path d="M-799.5,75.4c-0.2,1.2-0.8,2.5-1.7,4s-2,2.2-3.3,2.2s-1.9-0.4-2.5-1.1c-0.6-0.8-0.8-1.5-0.8-2.3s0-0.6,0.1-0.9
				s0.1-0.5,0.2-0.8c0.8-1.4,1.6-2.8,2.4-4.4s1.2-3.2,1.2-4.8s0-1.6,0.1-2.3c0-0.8,0.2-1.4,0.4-2c0.3-0.6,0.6-1.1,1.2-1.4
				c0.5-0.4,1.2-0.5,2.1-0.5s1.4,0.3,1.8,0.8c0.4,0.6,0.6,0.9,0.6,1.1c0.3,0.4,0.5,1,0.6,1.7c0.5,1.6,1.2,3.6,2,6.1s1.9,4.9,3.3,7.2
				c1.4,2.3,3,4.4,4.9,6c1.9,1.7,4.2,2.5,6.8,2.5s2.3-0.3,3.5-1s2.4-1.5,3.5-2.5s2.1-2.1,3-3.3c0.9-1.2,1.6-2.3,2.2-3.2
				c0.3-0.6,0.7-1.1,1.2-1.4s1-0.4,1.6-0.4s1.5,0.3,2.2,0.8c0.7,0.6,1.1,1.5,1.1,2.8s-0.3,1.5-0.8,2.4c-1,1.7-2.2,3.3-3.5,4.8
				s-2.7,2.9-4.2,4.1s-3.1,2.2-4.7,2.9c-1.6,0.7-3.3,1.1-5.1,1.1s-4.7-0.5-6.9-1.6c-2.2-1-4.1-2.4-5.9-4.1c-1.7-1.7-3.2-3.6-4.4-5.8
				C-798.2,79.8-799,77.6-799.5,75.4L-799.5,75.4z M-804.8,41.7c0.3-0.9,0.8-1.7,1.4-2.6c0.7-0.8,1.8-1.3,3.5-1.3s1.6,0.2,2.2,0.5
				s1,0.8,1.3,1.3s0.6,1,0.7,1.6s0.2,1.1,0.2,1.6c0,3.4-2,5.2-6.1,5.2s-2-0.4-2.5-1.3c-0.6-0.9-0.9-1.9-0.9-3.1v-0.9
				C-805,42.3-804.8,41.9-804.8,41.7L-804.8,41.7z"/>
			<path d="M-743.8,52.6c-0.6,0.5-1.3,1.3-2.3,2.5c-0.9,1.2-1.9,2.6-3,4.3c-1.1,1.6-2.2,3.4-3.4,5.4c-1.2,1.9-2.3,3.8-3.5,5.7
				c-1.1,1.9-2.2,3.7-3.3,5.4c-1.1,1.7-2,3.1-2.8,4.2c-0.6,0.6-1.1,1.1-1.6,1.3c-0.5,0.2-0.9,0.4-1.3,0.4c-0.9,0-1.7-0.3-2.4-1
				c-0.7-0.6-1-1.5-1-2.5s0.2-1.3,0.7-2c2.5-3.6,4.9-7.3,7.2-11.1c2.3-3.8,4.4-7.2,6.4-10.2s3.8-5.5,5.5-7.4s3.2-2.9,4.6-2.9
				s3.8,1,5.7,3s3.6,4.5,5.1,7.6s2.7,6.4,3.7,10c1,3.6,1.4,7,1.4,10.2V77c0,0.5-0.1,1-0.2,1.4h2.5c0.8,0,1.7-0.1,2.5-0.2
				c0.8-0.2,1.6-0.5,2.4-0.9s1.5-0.9,2-1.5c0.7-0.7,1.5-1.1,2.2-1.1s1.5,0.3,2.2,1c0.7,0.6,1,1.5,1,2.6s-0.3,2-0.9,2.8
				s-1.4,1.5-2.3,2c-1,0.6-2,1-3.2,1.4s-2.4,0.6-3.5,0.6c-1.1,0.2-2.1,0.1-3-0.1s-1.8-0.3-2.6-0.3c-0.4,2.2-1,4.5-2,6.7
				s-2.2,4.2-3.8,5.9c-1.5,1.7-3.2,3.1-5.1,4.2s-3.9,1.6-6.1,1.6s-1.8-0.1-3-0.4s-2.4-0.8-3.5-1.5s-2.1-1.7-2.9-2.9
				c-0.8-1.2-1.2-2.8-1.2-4.7s0.6-4.5,1.7-6.4s2.6-3.5,4.6-4.8c1.9-1.3,4.3-2.3,7-3s5.6-1.1,8.8-1.1c0.1-0.4,0.1-0.8,0.2-1.2
				c0-0.4,0.1-0.8,0.1-1.2c0-2.6-0.3-5.4-1-8.1c-0.7-2.8-1.5-5.3-2.5-7.5s-2-4-3-5.5C-742.2,53.3-743.1,52.6-743.8,52.6L-743.8,52.6
				z M-746,96c2.8,0,5.1-1,6.8-3.1s2.9-4.6,3.4-7.5c-1.4,0-2.9,0.1-4.6,0.4c-1.7,0.2-3.2,0.7-4.6,1.2c-1.4,0.6-2.6,1.4-3.6,2.4
				s-1.5,2.4-1.5,4s0.4,1.2,1.3,1.8C-748.1,95.7-747.1,96-746,96L-746,96z"/>
		</g>
	</g>
	<rect x="-500.8" y="-171.2" class="st4" width="535.7" height="535.7"/>
</g>
<g id="Calque_2-2">
	<g>
		<path class="st3" d="M10.7,90.5c-0.6,0.9-1.6,1.3-2.8,1.3s-2-0.4-2.6-1.3s-0.9-1.6-0.9-2.2s0.3-1.6,0.8-2.5
			c1.4-2.1,3.1-4.4,5.1-6.9s4.1-4.9,6.3-7c2.2-2.2,4.5-4,6.8-5.4s4.6-2.2,6.8-2.2s3.6,0.6,4.9,1.9c1.4,1.2,2.4,2.9,3.2,5
			s1.3,4.6,1.5,7.4s0,5.8-0.3,8.9c0.9-1.4,1.9-3.3,3-5.6c1.1-2.3,2.4-4.5,3.7-6.6c1.4-2.1,2.8-3.9,4.4-5.5c1.6-1.5,3.2-2.3,4.9-2.3
			s2,0.5,2.8,1.5s1.5,2.2,2,3.7c0.6,1.5,1,3.1,1.4,4.8c0.4,1.7,0.7,3.3,0.9,4.8s0.4,3.3,0.6,5.3c1.4-2.6,3-5.5,4.7-8.8
			s3.4-6.5,5.3-9.4c1.8-3,3.8-5.5,5.8-7.5s4-3.1,6.1-3.1s1.1,0.1,1.7,0.4c0.7,0.3,1.2,1,1.6,2.1c0.5,1.4,1,3.1,1.5,5.3
			c0.5,2.2,1.1,4.5,1.6,7c0.6,2.5,1.1,5,1.7,7.4c0.6,2.5,1.1,4.7,1.7,6.7s1.1,3.6,1.7,4.9s1.1,1.9,1.7,1.9c1,0,2.3-0.9,3.7-2.6
			s3-3.7,4.6-6.1c0.7-1,1.7-1.4,2.9-1.4s1.9,0.4,2.5,1.1s0.9,1.5,0.9,2.4s-0.2,1.7-0.7,2.5c-2.2,3.4-4.5,6.1-6.8,8.2s-4.9,3.2-8,3.2
			s-3.5-0.8-4.9-2.4c-1.3-1.6-2.4-3.6-3.3-6s-1.6-5-2.2-7.7c-0.6-2.8-1.1-5.3-1.6-7.7c-0.5-2.4-0.9-4.4-1.3-6
			c-0.4-1.6-0.8-2.4-1.3-2.4s-1.4,0.6-2.3,1.7c-0.9,1.1-1.8,2.5-2.8,4c-0.9,1.6-1.8,3.2-2.7,4.9c-0.9,1.7-1.6,3.1-2.2,4.3
			c-0.6,1.2-1.5,2.9-2.5,5.2c-1,2.3-2.2,4.5-3.4,6.8c-1.2,2.2-2.4,4.2-3.7,5.9c-1.3,1.7-2.5,2.5-3.6,2.5s-1.4-0.1-1.7-0.4
			s-0.5-0.6-0.6-1.1c0-0.4-0.1-0.9,0-1.5c0-0.6,0-1.2,0-1.8v-7.6c0-1,0-2.2-0.2-3.6s-0.3-2.8-0.6-4.2c-0.3-1.4-0.6-2.5-1.1-3.5
			c-0.4-1-0.9-1.4-1.5-1.4c-0.9,0-1.8,0.5-2.7,1.6c-0.9,1-1.9,2.4-2.9,4s-2.1,3.5-3.1,5.6s-2,4.2-3,6.3c-1,2.1-2,4.1-2.9,6.1
			c-0.9,1.9-1.7,3.6-2.5,4.9c-0.3,0.6-0.9,1.2-1.6,1.8c-0.8,0.6-1.7,0.8-2.9,0.8s-1.7-0.3-2.5-1s-1.2-1.6-1.2-2.7s0-0.8,0.1-1.1
			c0.6-1.5,1.1-3.4,1.6-5.8c0.5-2.3,1-4.8,1.4-7.4s0.7-5.2,0.9-7.7c0.2-2.6,0.3-4.9,0.2-7c0-2.1-0.3-3.8-0.7-5.1c-0.4-1.3-1-2-1.8-2
			c-1.3,0-2.8,0.7-4.6,2c-1.8,1.4-3.6,3-5.5,5s-3.7,4-5.3,6.2c-1.7,2.2-3.1,4.1-4.3,5.8L10.7,90.5z"/>
		<path class="st3" d="M136.7,79.5c0.6,2.2,0.8,4.5,0.8,6.8c0,4.3-1.1,7.8-3.3,10.4s-5.3,4-9.4,4s-5.1-0.8-7.6-2.3s-4.8-3.5-6.8-5.9
			s-3.6-5.1-4.8-8.2c-1.2-3-1.8-6.1-1.8-9.1s0.5-4.8,1.4-7.1c0.9-2.4,2.2-4.5,3.7-6.4c1.6-1.9,3.4-3.4,5.5-4.5s4.4-1.7,6.8-1.7
			s4.6,0.5,6.5,1.4c1.9,1,3.7,2.2,5.2,3.8c1.6,1.6,3,3.4,4.3,5.4s2.5,4.1,3.6,6.3c0.7,1.4,1.5,3.2,2.5,5.6c0.9,2.4,1.9,4.7,3,7.1
			c1.1,2.3,2.2,4.3,3.5,6c1.2,1.7,2.5,2.6,3.9,2.6s2.6-0.5,3.6-1.4s1.9-2,2.7-3.2s1.6-2.2,2.4-3.2c0.8-0.9,1.7-1.4,2.7-1.4
			s2,0.4,2.6,1.1c0.6,0.8,1,1.6,1,2.5s-0.3,1.6-1,2.4c-0.9,1.2-1.8,2.4-2.9,3.7c-1,1.2-2.2,2.4-3.4,3.4s-2.5,1.8-3.8,2.4
			s-2.6,0.9-3.9,0.9c-2.1,0-4-0.7-5.8-2.1s-3.4-3.1-4.9-5.2c-1.4-2.1-2.7-4.4-3.8-6.9s-1.9-4.9-2.5-7.3L136.7,79.5L136.7,79.5z
			 M131.6,80.2c0-2.2-0.1-4.4-0.4-6.5c-0.2-2.1-0.7-4-1.5-5.7s-1.8-3-3.2-4s-3.1-1.5-5.3-1.5s-3.2,0.4-4.4,1.3
			c-1.3,0.9-2.4,2-3.3,3.3s-1.6,2.7-2,4.3c-0.4,1.6-0.7,3-0.7,4.2c0,2.1,0.4,4.2,1.2,6.3c0.8,2.1,1.9,4,3.2,5.7s2.8,3.1,4.4,4.2
			s3.3,1.7,5.1,1.7s3.5-1.1,4.9-3.2c1.3-2.2,2-5.5,2-10.2L131.6,80.2L131.6,80.2z"/>
		<path class="st3" d="M143.1,40.5c-0.3-0.3-0.5-0.7-0.6-1.1c0-0.4-0.1-0.8-0.1-1.1c0-1.4,0.6-2.2,1.8-2.5s2.4-0.4,3.6-0.4
			s1.6,0,2.3,0s1.5,0.1,2.3,0.2c0-4.6,0.2-9.1,0.7-13.7c0.4-4.6,0.7-9.1,0.7-13.7s0.2-1.5,0.7-1.8s1.3-0.5,2.4-0.5s1.9,0.2,2.6,0.6
			c0.7,0.4,1.1,1.2,1.1,2.4s0,3.6-0.2,6s-0.2,4.9-0.4,7.4c-0.1,2.6-0.2,5.1-0.4,7.5c-0.1,2.4-0.2,4.5-0.2,6.1c1.3,0,2.5,0.1,3.8,0.2
			c1.2,0,2.5,0,3.8,0c4.2,0,8.4-0.2,12.6-0.7c4.2-0.4,8.4-0.7,12.7-0.7s2.1,0.4,2.6,1.2c0.5,0.8,0.8,1.6,0.8,2.3s0,0.5,0,1
			s-0.2,1-0.4,1.4c-0.2,0.5-0.6,0.9-1.1,1.3s-1.2,0.5-2,0.5h-25.9c-1.1,0-2.2,0-3.4,0c-1.1,0-2.2,0-3.1-0.2
			c-0.2,2.6-0.4,5.4-0.4,8.4s0.1,6.5,0.4,9.8c0.3,3.4,0.8,6.6,1.6,9.9c0.8,3.2,1.8,6.3,3.1,9.2c1.3,2.9,3,5.4,5.2,7.5
			c2.1,2.1,4.7,3.8,7.6,5.1c3,1.3,6.4,1.9,10.4,1.9s5.2-0.2,7.4-0.6s4.3-1,6.2-1.8s3.6-1.7,5.3-2.8c1.6-1,3.3-2.2,4.9-3.6
			c0.2-0.2,0.6-0.4,1.1-0.6s0.9-0.2,1.2-0.2c1,0,1.8,0.3,2.5,1c0.7,0.6,1,1.5,1,2.6s0,0.7-0.2,1.2s-0.4,0.9-0.7,1.2
			c-3.5,3.5-7.8,6.2-12.8,8s-10.3,2.7-15.8,2.7s-9.4-0.8-13.1-2.3c-3.7-1.6-6.9-3.6-9.5-6.2s-4.8-5.6-6.4-9s-2.9-7-3.8-10.7
			s-1.6-7.5-1.9-11.3c-0.4-3.8-0.5-7.4-0.5-10.9v-5.8c0-1,0-1.9,0.1-2.6c-1.9-0.2-3.7-0.3-5.4-0.4s-3-0.6-3.8-1.5L143.1,40.5z"/>
		<path class="st3" d="M211.5,113.4c-0.5-7.7-0.9-14.4-1.1-20.2c-0.3-5.8-0.5-10.8-0.7-15.1c-0.2-4.3-0.3-8-0.4-11.1
			c0-3.1-0.1-5.8-0.1-8.1s0-4.6,0.1-7.3c0-2.7,0.3-5.4,0.5-8.2c0.3-2.8,0.7-5.5,1.2-8.1s1.3-4.9,2.2-7c1-2.1,2.1-3.7,3.5-5
			c1.4-1.2,3.1-1.9,5.1-1.9c3,0,5.3,1.1,6.9,3.2c1.6,2.2,2.9,4.7,3.7,7.6c0.8,2.9,1.3,5.9,1.5,8.9s0.3,5.4,0.3,7.1
			c0,5.2-0.7,10.1-2.2,14.6c-1.4,4.5-3.1,8.6-5,12.2s-3.7,6.7-5.5,9.3c-1.8,2.6-3,4.4-3.7,5.6c0,3.4,0,6.3,0,8.7
			c0,2.4,0.2,4.7,0.4,6.8c1.1-0.3,2.1-1.1,3.1-2.2c0.9-1.2,1.8-2.5,2.6-4.1s1.7-3.2,2.6-5s2-3.4,3.2-4.8s2.7-2.6,4.4-3.6
			s3.7-1.4,6-1.4s4.4,0.4,5.9,1.3c1.6,0.9,2.9,2,3.9,3.3s2,2.8,2.8,4.3c0.8,1.6,1.6,3,2.5,4.3s1.8,2.4,3,3.3s2.7,1.3,4.5,1.3
			s3.4-0.6,5-1.7c1.7-1.1,3.3-2.5,4.9-4.1s3.1-3.4,4.5-5.3s2.7-3.6,3.8-5.1c0.7-1,1.7-1.6,3-1.6s1.7,0.4,2.4,1.1s1.1,1.6,1.1,2.5
			s-0.2,1.6-0.7,2.2c-1.9,2.8-3.8,5.4-5.7,7.7c-1.9,2.3-3.8,4.3-5.8,6s-4,3-6.1,3.9s-4.3,1.4-6.6,1.4s-4.9-0.4-6.7-1.3
			s-3.3-2-4.6-3.3s-2.3-2.8-3.2-4.3c-0.8-1.6-1.7-3-2.5-4.3s-1.6-2.4-2.5-3.3s-1.9-1.3-3.1-1.3s-2.7,0.6-3.8,1.7
			c-1.1,1.2-2.2,2.6-3.2,4.4s-2.1,3.7-3.2,5.8s-2.3,4-3.8,5.8c-1.4,1.8-3.1,3.3-5,4.4c-1.9,1.2-4.1,1.7-6.7,1.7s-3.1-0.6-3.1-1.9
			L211.5,113.4z M216.3,70.7v4.6c0,1.8,0,3.3,0.2,4.3c1.4-2.2,2.7-4.7,4-7.4c1.3-2.7,2.4-5.4,3.4-8.2c1-2.8,1.7-5.5,2.3-8.2
			s0.8-5.2,0.8-7.5s-0.1-2.9-0.3-5.2c-0.2-2.2-0.5-4.5-0.9-6.7c-0.4-2.2-0.9-4.1-1.6-5.7c-0.6-1.6-1.4-2.4-2.4-2.4s-1.5,0.8-2.1,2.5
			c-0.6,1.6-1.1,3.8-1.6,6.4c-0.4,2.6-0.8,5.5-1,8.7s-0.4,6.4-0.5,9.5s-0.2,6-0.2,8.8C216.4,66.9,216.4,69.1,216.3,70.7L216.3,70.7z
			"/>
		<path class="st3" d="M289.5,85.5c-0.2,1.2-0.8,2.5-1.8,4s-2.2,2.2-3.6,2.2s-2.1-0.4-2.7-1.1c-0.6-0.8-0.9-1.5-0.9-2.3
			s0-0.6,0.1-0.9c0-0.3,0.2-0.5,0.2-0.8c0.9-1.4,1.8-2.8,2.6-4.4c0.9-1.6,1.3-3.2,1.3-4.8s0-1.6,0-2.3c0-0.8,0.2-1.4,0.5-2
			s0.7-1.1,1.3-1.4c0.6-0.4,1.3-0.5,2.3-0.5s1.5,0.3,2,0.8c0.4,0.6,0.7,0.9,0.7,1.1c0.3,0.4,0.5,1,0.6,1.7c0.6,1.6,1.3,3.6,2.2,6.1
			s2.1,4.9,3.6,7.2c1.5,2.3,3.3,4.4,5.3,6c2.1,1.7,4.6,2.5,7.4,2.5s2.5-0.3,3.8-1s2.6-1.5,3.8-2.5s2.3-2.1,3.3-3.3
			c1-1.2,1.8-2.3,2.3-3.2c0.3-0.6,0.7-1.1,1.3-1.4c0.5-0.3,1.1-0.4,1.7-0.4s1.6,0.3,2.4,0.8c0.8,0.6,1.2,1.5,1.2,2.8
			s-0.3,1.5-0.8,2.4c-1.1,1.7-2.4,3.3-3.8,4.8s-2.9,2.9-4.6,4.1c-1.6,1.2-3.3,2.2-5.1,2.9c-1.8,0.7-3.6,1.1-5.5,1.1
			s-5.1-0.5-7.5-1.6c-2.4-1-4.5-2.4-6.4-4.1s-3.5-3.6-4.7-5.8c-1.3-2.2-2.2-4.4-2.6-6.6L289.5,85.5z M283.8,51.8
			c0.3-0.9,0.8-1.7,1.6-2.6c0.7-0.8,2-1.3,3.8-1.3s1.7,0.2,2.3,0.5c0.6,0.4,1.1,0.8,1.4,1.3c0.4,0.5,0.6,1,0.8,1.6s0.2,1.1,0.2,1.6
			c0,3.4-2.2,5.2-6.6,5.2s-2.1-0.4-2.8-1.3c-0.6-0.9-1-1.9-1-3.1v-0.9c0-0.4,0-0.7,0.1-0.9L283.8,51.8z"/>
		<path class="st3" d="M350,62.8c-0.6,0.5-1.5,1.3-2.5,2.5s-2.1,2.6-3.2,4.3c-1.2,1.6-2.4,3.4-3.7,5.4c-1.3,1.9-2.5,3.8-3.8,5.7
			c-1.2,1.9-2.4,3.7-3.6,5.4c-1.2,1.7-2.2,3.1-3.1,4.2c-0.6,0.6-1.2,1.1-1.7,1.3c-0.5,0.2-1,0.4-1.4,0.4c-1,0-1.8-0.3-2.6-1
			c-0.8-0.6-1.1-1.5-1.1-2.5s0.2-1.3,0.7-2c2.7-3.6,5.3-7.3,7.8-11.1c2.5-3.8,4.8-7.2,7-10.2s4.2-5.5,6-7.4s3.5-2.9,5-2.9
			s4.1,1,6.2,3c2,2,3.9,4.5,5.5,7.6s3,6.4,4,10s1.6,7,1.6,10.2v1.5c0,0.5,0,1-0.2,1.4h2.7c0.9,0,1.8,0,2.7-0.2s1.7-0.5,2.6-0.9
			c0.8-0.4,1.6-0.9,2.2-1.5c0.8-0.7,1.6-1.1,2.4-1.1s1.7,0.3,2.4,1c0.7,0.6,1.1,1.5,1.1,2.6s-0.3,2-1,2.8c-0.6,0.8-1.5,1.5-2.5,2
			c-1,0.6-2.2,1-3.5,1.4s-2.6,0.6-3.8,0.6c-1.2,0.2-2.3,0.1-3.3,0c-1-0.2-1.9-0.3-2.8-0.3c-0.4,2.2-1.1,4.5-2.2,6.7
			c-1.1,2.2-2.4,4.2-4.1,5.9c-1.6,1.7-3.5,3.1-5.5,4.2s-4.3,1.6-6.7,1.6s-2-0.1-3.3-0.4s-2.6-0.8-3.8-1.5s-2.3-1.7-3.2-2.9
			c-0.9-1.2-1.3-2.8-1.3-4.7s0.6-4.5,1.8-6.4s2.9-3.5,5-4.8c2.1-1.3,4.6-2.3,7.6-3c2.9-0.7,6.1-1.1,9.5-1.1c0-0.4,0.1-0.8,0.2-1.2
			c0-0.4,0-0.8,0-1.2c0-2.6-0.4-5.4-1.1-8.1c-0.8-2.8-1.7-5.3-2.8-7.5s-2.2-4-3.3-5.5C351.8,63.7,350.8,62.9,350,62.8L350,62.8z
			 M347.6,106.2c3,0,5.5-1,7.4-3.1s3.1-4.6,3.7-7.5c-1.5,0-3.2,0.1-5,0.4c-1.8,0.2-3.5,0.7-5,1.2c-1.6,0.6-2.9,1.4-4,2.4
			s-1.6,2.4-1.6,4s0.5,1.2,1.4,1.8C345.4,106,346.5,106.2,347.6,106.2L347.6,106.2z"/>
	</g>
</g>
</svg>
