<?xml version="1.0" encoding="utf-8"?>
<!-- Generator: Adobe Illustrator 28.1.0, SVG Export Plug-In . SVG Version: 6.00 Build 0)  -->
<svg version="1.1" id="Calque_2_00000096739883226536590330000014558063250574138779_"
	 xmlns="http://www.w3.org/2000/svg" xmlns:xlink="http://www.w3.org/1999/xlink" x="0px" y="0px" viewBox="0 0 169.1 72.9"
	 style="enable-background:new 0 0 169.1 72.9;" xml:space="preserve">
<style type="text/css">
	.st0{fill:none;}
	.st1{fill:#FFFFFF;}
</style>
<rect x="-169" y="-224.6" class="st0" width="513.6" height="516.1"/>
<g>
	<path class="st1" d="M11.4,43.6c-0.9,1.2-2.1,1.8-3.7,1.8s-2.6-0.6-3.4-1.7c-0.8-1.1-1.2-2.1-1.2-3s0.4-2.2,1.1-3.4
		c1.9-2.8,4.2-5.8,6.8-9.2s5.4-6.5,8.4-9.4s6-5.3,9.1-7.2s6.1-2.9,9.1-2.9s4.7,0.8,6.6,2.5c1.8,1.7,3.3,3.9,4.3,6.7
		c1.1,2.8,1.7,6.1,2,9.8s0.1,7.7-0.4,11.8c1.2-1.9,2.5-4.4,4-7.4s3.1-6,5-8.8c1.8-2.8,3.8-5.3,5.8-7.3c2.1-2,4.2-3,6.5-3
		s2.6,0.7,3.7,2c1.1,1.3,2,3,2.7,5s1.4,4.1,1.8,6.4c0.5,2.3,0.9,4.4,1.2,6.4s0.6,4.3,0.8,7.1c1.9-3.4,4-7.3,6.2-11.8
		c2.2-4.4,4.6-8.6,7-12.6c2.5-3.9,5-7.3,7.7-10s5.4-4.1,8.2-4.1s1.4,0.2,2.3,0.6c0.9,0.4,1.6,1.3,2.2,2.8c0.6,1.8,1.3,4.2,2,7.1
		c0.7,2.9,1.4,6.1,2.2,9.4c0.7,3.3,1.5,6.6,2.2,9.9s1.5,6.3,2.2,9s1.5,4.9,2.2,6.6s1.5,2.6,2.2,2.6c1.4,0,3-1.1,5-3.4
		c1.9-2.3,3.9-5,6.1-8.1c1-1.3,2.2-1.9,3.8-1.9s2.5,0.5,3.3,1.4c0.8,1,1.2,2,1.2,3.2s-0.3,2.3-1,3.4c-3,4.5-6,8.1-9,11
		c-3,2.8-6.6,4.2-10.6,4.2s-4.7-1.1-6.5-3.2s-3.2-4.8-4.4-8c-1.2-3.2-2.2-6.6-3-10.3c-0.8-3.7-1.5-7.1-2.2-10.3
		c-0.6-3.2-1.2-5.9-1.8-8c-0.5-2.1-1.1-3.2-1.8-3.2s-1.9,0.7-3.1,2.2s-2.5,3.3-3.7,5.4c-1.2,2.1-2.4,4.2-3.6,6.5
		c-1.2,2.2-2.1,4.2-2.9,5.8c-0.9,1.6-2,3.9-3.4,7c-1.4,3-2.9,6.1-4.5,9c-1.6,3-3.3,5.6-5,7.8c-1.7,2.2-3.3,3.4-4.8,3.4
		s-1.8-0.2-2.2-0.6s-0.7-0.9-0.8-1.4c-0.1-0.6-0.1-1.3-0.1-2c0.1-0.7,0.1-1.5,0.1-2.4V46.7c0-1.3-0.1-2.9-0.2-4.8
		c-0.2-1.9-0.4-3.8-0.8-5.6c-0.4-1.8-0.9-3.4-1.4-4.6c-0.6-1.3-1.3-1.9-2-1.9c-1.2,0-2.4,0.7-3.6,2.1c-1.2,1.4-2.5,3.2-3.9,5.4
		c-1.4,2.2-2.7,4.7-4.1,7.4c-1.3,2.8-2.7,5.6-4,8.4s-2.6,5.5-3.8,8.1s-2.3,4.7-3.3,6.6c-0.4,0.9-1.1,1.7-2.2,2.4
		c-1,0.7-2.3,1.1-3.9,1.1s-2.3-0.5-3.4-1.4c-1.1-0.9-1.6-2.1-1.6-3.6s0.1-1,0.2-1.4c0.7-2,1.5-4.6,2.2-7.7s1.3-6.4,1.8-9.8
		c0.5-3.5,0.9-6.9,1.2-10.3s0.3-6.5,0.2-9.3s-0.4-5-1-6.8c-0.5-1.8-1.3-2.6-2.4-2.6c-1.7,0-3.7,0.9-6.1,2.7c-2.3,1.8-4.8,4-7.3,6.6
		S19,33.1,16.8,36C14.9,38.8,13,41.4,11.4,43.6L11.4,43.6z"/>
	<path class="st1" d="M151.3,52.7c0.4-2,1.5-3.5,3.3-4.3c1.8-0.9,3.7-1.3,5.8-1.3c1.3-0.1,2.4,0.1,3.3,0.5s1.6,1,2.2,1.8
		c0.5,0.7,0.9,1.5,1.1,2.4s0.3,1.7,0.2,2.4c-0.1,1.1-0.3,2-0.5,2.9s-0.6,1.6-1.2,2.2s-1.4,1.1-2.5,1.4c-1.1,0.4-2.5,0.6-4.2,0.7
		c-2.8,0.5-4.9-0.1-6.3-1.8C151,57.8,150.6,55.5,151.3,52.7L151.3,52.7z"/>
</g>
</svg>
